<?xml version="1.0" encoding="iso-8859-1"?>
<!-- Uploaded to: SVG Repo, www.svgrepo.com, Generator: SVG Repo Mixer Tools -->
<svg fill="navy" height="800px" width="800px" version="1.1" id="Capa_1" xmlns="http://www.w3.org/2000/svg" xmlns:xlink="http://www.w3.org/1999/xlink" 
	 viewBox="0 0 489.2 489.2" xml:space="preserve">
<g>
	<path d="M454.85,232.9c-10.4-5.9-21.6-8.7-32.8-8.8l-12.7-55.9c29.5-20.3,38.2-60.6,19.2-91.4c-19.6-31.8-61.5-41.7-93.3-22.1
		c-9.4,5.8-16.8,13.5-22.2,22.3l-47.2-14.6c-2.8-34.9-32-62.4-67.6-62.4c-37.4,0-67.8,30.4-67.8,67.8c0,9.8,2.1,19,5.8,27.4
		l-42.7,39.6c-31-12.7-67.6-0.7-84.6,29.2c-18.5,32.5-7.1,74,25.4,92.4c8.5,4.8,17.7,7.6,26.8,8.5l13.6,60
		c-25.4,21.2-32.1,58.6-14.2,87.6c19.6,31.8,61.5,41.7,93.3,22.1c9.4-5.8,16.8-13.5,22.2-22.3l47.3,14.6c2.8,34.8,32,62.3,67.6,62.3
		c37.4,0,67.8-30.4,67.8-67.8c0-11.9-3.1-23-8.4-32.7l39.8-36.9c32.1,16.7,72.1,5,90.1-26.7C498.75,292.8,487.35,251.3,454.85,232.9
		z M356.85,89.5c12.6-7.8,29.1-3.8,36.9,8.7c7.8,12.6,3.8,29.1-8.7,36.9c-12.6,7.8-29.1,3.8-36.9-8.7
		C340.35,113.8,344.25,97.3,356.85,89.5z M370.05,180.1l12.7,56c-8.1,5.6-15.2,13.1-20.4,22.2c-11.7,20.7-11.4,44.9-1.2,64.6
		l-40.6,37.7c-8.9-4.4-19-6.8-29.6-6.8c-24.7,0-46.4,13.3-58.3,33.2l-46.7-14.5c-0.7-10.7-3.9-21.4-9.9-31.1
		c-13.7-22.2-38.3-33.7-62.7-32l-12-53c10.3-5.8,19.2-14.4,25.5-25.4c12.8-22.5,11.3-49.2-1.6-69.7l38.3-35.5
		c10.2,6.1,22.1,9.6,34.8,9.6c24.7,0,46.4-13.3,58.2-33.1l46.8,14.5c0.7,10.7,3.9,21.3,9.9,31.1
		C325.85,168.4,347.65,179.8,370.05,180.1z M198.35,40.9c14.8,0,26.8,12,26.8,26.8s-12,26.8-26.8,26.8s-26.8-12-26.8-26.8
		S183.55,40.9,198.35,40.9z M44.65,184.3c7.3-12.8,23.7-17.4,36.5-10.1c12.8,7.3,17.4,23.7,10.1,36.5s-23.7,17.4-36.5,10.1
		C41.85,213.5,37.35,197.1,44.65,184.3z M132.45,399.8c-12.6,7.8-29.1,3.8-36.9-8.7c-7.8-12.6-3.8-29.1,8.7-36.9
		c12.6-7.8,29.1-3.8,36.9,8.7C148.95,375.5,145.05,392,132.45,399.8z M290.95,448.4c-14.8,0-26.8-12-26.8-26.8s12-26.8,26.8-26.8
		s26.8,12,26.8,26.8S305.75,448.4,290.95,448.4z M444.65,305c-7.3,12.8-23.7,17.4-36.5,10.1s-17.4-23.7-10.1-36.5
		s23.7-17.4,36.5-10.1C447.45,275.8,451.95,292.2,444.65,305z"/>
</g>
</svg>